<?xml version="1.0" standalone="no"?>
<!DOCTYPE svg PUBLIC "-//W3C//DTD SVG 20010904//EN"
 "http://www.w3.org/TR/2001/REC-SVG-20010904/DTD/svg10.dtd">
<svg version="1.0" xmlns="http://www.w3.org/2000/svg"
 width="300.000000pt" height="300.000000pt" viewBox="0 0 300.000000 300.000000"
 preserveAspectRatio="xMidYMid meet">
<metadata>
Created by potrace 1.11, written by Peter Selinger 2001-2013
</metadata>
<g transform="translate(0.000000,300.000000) scale(0.100000,-0.100000)"
fill="#000000" stroke="none">
<path d="M1299 2453 c0 -16 -2 -37 -4 -48 -4 -19 -16 -138 -19 -180 -1 -16
-19 -23 -116 -45 -145 -34 -208 -58 -232 -90 -17 -23 -19 -44 -18 -180 0 -85
2 -171 4 -190 3 -19 7 -93 11 -165 3 -71 8 -137 10 -145 2 -8 7 -91 10 -185 3
-93 8 -197 11 -230 2 -33 7 -91 9 -130 3 -38 6 -78 8 -87 9 -49 90 -91 202
-104 27 -3 51 -7 53 -8 1 -2 -21 -17 -50 -34 -29 -17 -68 -44 -87 -60 -20 -18
-54 -34 -85 -41 -99 -22 -150 -42 -226 -89 -81 -50 -199 -176 -238 -255 -28
-56 -61 -152 -62 -179 0 -5 541 -8 1201 -8 l1201 0 -6 104 c-6 104 -26 228
-47 296 -19 61 -43 110 -53 110 -5 0 -6 3 -3 7 11 11 -52 64 -108 89 -35 16
-77 26 -126 29 -41 2 -76 5 -79 6 -3 1 -8 1 -11 1 -3 -1 -33 -3 -65 -6 -33 -3
-67 -8 -75 -11 -10 -4 -25 5 -40 25 -69 88 -214 134 -424 133 -49 0 -70 3 -54
7 60 17 68 27 64 77 -2 27 -7 161 -10 298 -3 138 -7 302 -10 365 -2 63 -7 216
-10 340 -3 124 -8 234 -10 245 -9 44 -175 94 -322 98 l-71 2 -28 80 c-57 166
-93 226 -95 158z"/>
</g>
</svg>
